<svg xmlns="http://www.w3.org/2000/svg" fill="none" viewBox="0 0 1266 275" height="275" width="1266">
	<path fill="black" d="M54.6 124.8H80.4C132.6 124.8 158.7 98.7 158.7 61.8C158.7 29.4 133.2 0.299988 79.2 0.299988H0V8.39999C22.2 11.1 26.4 12.6 26.4 29.7V181.5C26.4 198.6 22.2 200.1 0 202.8V210.9H91.8V202.2C62.4 199.8 54.6 195.9 54.6 177.6V124.8ZM54.6 10.2H74.4C112.2 10.2 127.8 34.5 127.8 63C127.8 96 112.2 114.9 74.4 114.9H54.6V10.2ZM303.6 84L304.8 52.5H301.5L255.9 60.9V67.8L260.4 68.4C274.8 70.2 276.9 73.2 276.9 84V179.1C265.5 188.1 253.5 196.2 237.9 196.2C219.3 196.2 211.2 183.6 211.2 161.7V85.2L212.7 52.5H209.4L163.2 60.9V67.8L168 68.4C182.1 70.2 184.5 73.2 184.5 84V167.1C184.5 199.8 199.8 213.9 225.6 213.9C246.6 213.9 262.5 200.1 276.9 185.7L275.7 213.9H280.2L325.5 202.8V196.5L317.7 195.6C304.2 194.1 303.6 192 303.6 181.8V84ZM377.4 101.1C394.2 80.7 406.8 79.2 425.1 79.2H429.3V56.7C427.2 54 423.3 51.9 417.9 51.9C401.1 51.9 393.9 63.9 377.4 94.5L378.6 51.9H375L330.9 66.9V70.2L350.4 80.7V188.1C350.4 199.8 345.6 202.2 329.7 203.1V210.9H404.1V203.1C384.3 202.2 377.4 199.8 377.4 188.1V101.1ZM497.7 51.9C459 51.9 430.2 88.2 430.2 137.4C430.2 179.4 454.5 213.9 497.1 213.9C528.3 213.9 549 195 556.2 168.9L552.6 167.1C542.1 183.6 529.2 193.8 507.6 193.8C476.4 193.8 452.4 166.2 454.5 117.6H554.1V111.3C554.1 77.7 534.6 51.9 497.7 51.9ZM495.3 61.5C518.7 61.5 528 81.9 528 108.9H455.4C458.4 82.2 472.2 61.5 495.3 61.5ZM621.3 213.9C654.3 213.9 675.9 196.5 675.9 167.7C675.9 141.9 657.9 129.6 629.1 118.8C602.4 108.9 592.8 100.8 592.8 85.2C592.8 70.8 602.1 60.3 619.5 60.3C641.4 60.3 653.4 77.7 659.4 100.8H666.6V64.5C654.3 56.7 639.6 51.9 621 51.9C591 51.9 571.5 68.4 571.5 94.2C571.5 119.4 586.2 130.5 616.2 142.2C642.9 152.7 654 160.2 654 177.6C654 196.5 640.2 205.5 622.5 205.5C599.1 205.5 584.7 185.1 577.2 157.8H569.1L570.9 199.2C582 207.9 600.9 213.9 621.3 213.9ZM761.1 205.2C739.8 205.2 726.9 194.1 726.9 167.4V85.5C731.4 80.5 736.9 76.5 743.1 73.7C749.2 70.9 755.9 69.4 762.6 69.3C796.8 69.3 809.4 102.3 809.4 136.2C809.4 174.9 790.5 205.2 761.1 205.2ZM699.9 251.7C699.9 263.4 695.1 265.8 679.2 266.7V274.5H753.6V266.7C732.9 265.2 726.9 263.4 726.9 251.1V203.1C735.3 210.3 747.9 213.9 761.1 213.9C802.8 213.9 836.4 179.4 836.4 123.9C836.4 80.7 815.1 51.9 777.3 51.9C754.8 51.9 738.6 62.7 726.9 78.6L728.1 51.9H724.5L680.4 66.9V70.2L699.9 80.7V251.7ZM921 204.6C891.9 204.6 878.4 168.9 878.4 129.3C878.4 88.8 893.1 61.2 919.8 61.2C948.9 61.2 962.4 96.9 962.4 136.5C962.4 177 947.7 204.6 921 204.6ZM919.5 213.9C959.4 213.9 990.9 180.6 990.9 129C990.9 83.7 963.3 51.9 921.3 51.9C881.4 51.9 849.9 85.2 849.9 136.8C849.9 182.7 877.5 213.9 919.5 213.9ZM1040.7 101.1C1057.5 80.7 1070.1 79.2 1088.4 79.2H1092.6V56.7C1090.5 54 1086.6 51.9 1081.2 51.9C1064.4 51.9 1057.2 63.9 1040.7 94.5L1041.9 51.9H1038.3L994.2 66.9V70.2L1013.7 80.7V188.1C1013.7 199.8 1008.9 202.2 993 203.1V210.9H1067.4V203.1C1047.6 202.2 1040.7 199.8 1040.7 188.1V101.1ZM1141.5 17.7H1135.5C1125.6 36.6 1111.8 52.8 1094.7 62.1V66.3H1115.1V170.1C1115.1 202.2 1131.6 213.9 1153.2 213.9C1171.8 213.9 1185 203.1 1192.8 191.7L1190.1 188.1C1182 194.1 1175.7 196.8 1166.4 196.8C1149.6 196.8 1141.5 187.8 1141.5 165.6V66.3H1184.4V54.9H1141.5V17.7Z"></path>
	<path fill="black" d="M1240.8 202.1C1240.8 203.9 1241.1 204.1 1243.4 204.4V205.6H1233.3V204.3C1235.6 204 1235.9 203.8 1235.9 202V185.7C1235.9 183.9 1235.6 183.7 1233.3 183.4V182.3H1243.8C1249.3 182.3 1252.4 184.9 1252.4 188.7C1252.4 192.3 1249.5 194.2 1247 194.8L1252 201.6C1253.5 203.6 1254.3 204.3 1256 204.3V205.5H1249.7C1248.7 204.8 1247.9 203.8 1246.9 202.3L1242.3 195.6H1240.6V202.1H1240.8ZM1240.8 183.7V194.2H1242.4C1245.9 194.2 1247.6 192.2 1247.6 188.8C1247.6 185.8 1245.9 183.7 1242.4 183.7H1240.8Z"></path>
	<path stroke-miterlimit="10" stroke-width="3" stroke="black" d="M1243.7 214.7C1255.08 214.7 1264.3 205.477 1264.3 194.1C1264.3 182.723 1255.08 173.5 1243.7 173.5C1232.32 173.5 1223.1 182.723 1223.1 194.1C1223.1 205.477 1232.32 214.7 1243.7 214.7Z"></path>
</svg>
